# xmcd CD database file
#
# Track frame offsets:
#	150
#	19338
#	33026
#	45775
#	58965
#	74877
#	87246
#	99574
#	110944
#	122889
#	132076
#	144147
#	157395
#	170749
#	185226
#
# Disc length: 2642 seconds
#
# Revision: 0
# Processed by: cddbd v1.5.2PL0 Copyright (c) Steve Scherf et al.
# Submitted via: CDex 1.51
#
DISCID=e20a500f
DTITLE=STAMATIS SPANOUDAKIS - TO ONIRO TOU NESTORA+BONUS ENOTITA O NESTOR STON OURANO
DYEAR=2008
DGENRE=Children
TTITLE0=O ANTHROPOS ROLOI-STAMATIS SPANOUDAKIS-NTORI SPANOUDAKI
TTITLE1=TO GATI HORIS OURA-STAMATIS SPANOUDAKIS-NTORI SPANOUDAKI
TTITLE2=I BLE KOUKOUVAGIA-STAMATIS SPANOUDAKIS-NTORI SPANOUDAKI
TTITLE3=O ASIMENIOS SKILOS-STAMATIS SPANOUDAKIS-NTORI SPANOUDAKI
TTITLE4=TO LOULOUDI POU MILAI-STAMATIS SPANOUDAKIS-NTORI SPANOUDAKI
TTITLE5=O  TIFLOS KATHREFTIS-STAMATIS SPANOUDAKIS-NTORI SPANOUDAKI
TTITLE6=I STRAVI KREMASTRA-STAMATIS SPANOUDAKIS-NTORI SPANOUDAKI
TTITLE7=TO  HORIS AFROLOUTRO-STAMATIS SPANOUDAKIS-NTORI SPANOUDAKI
TTITLE8=I KAKIA PETSETA-STAMATIS SPANOUDAKIS-NTORI SPANOUDAKI
TTITLE9=PAO STO SHOLIO-STAMATIS SPANOUDAKIS-NTORI SPANOUDAKI
TTITLE10=ARHIZI TO TAXIDI-STAMATIS SPANOUDAKIS
TTITLE11=IME ENA ASTERAKI-STAMATIS SPANOUDAKIS
TTITLE12=IME O HRONOS-STAMATIS SPANOUDAKIS
TTITLE13=T'AGELOUDIA-STAMATIS SPANOUDAKIS
TTITLE14=HATHIKAME EDO-STAMATIS SPANOUDAKIS
EXTD=YEAR: 2008
EXTT0=
EXTT1=
EXTT2=
EXTT3=
EXTT4=
EXTT5=
EXTT6=
EXTT7=
EXTT8=
EXTT9=
EXTT10=
EXTT11=
EXTT12=
EXTT13=
EXTT14=
PLAYORDER=
